<?xml version="1.0" standalone="no"?>
<!DOCTYPE svg PUBLIC "-//W3C//DTD SVG 20010904//EN"
 "http://www.w3.org/TR/2001/REC-SVG-20010904/DTD/svg10.dtd">
<svg version="1.0" xmlns="http://www.w3.org/2000/svg"
 width="300.000000pt" height="300.000000pt" viewBox="0 0 300.000000 300.000000"
 preserveAspectRatio="xMidYMid meet">
<metadata>
Created by potrace 1.11, written by Peter Selinger 2001-2013
</metadata>
<g transform="translate(0.000000,300.000000) scale(0.100000,-0.100000)"
fill="#000000" stroke="none">
<path d="M1190 1921 c0 -4 16 -11 36 -14 76 -13 74 -1 74 -367 0 -213 -4 -338
-11 -359 -12 -34 -35 -51 -68 -51 -26 0 -27 17 -2 25 51 16 26 95 -29 95 -33
0 -70 -30 -70 -58 0 -51 72 -89 140 -73 71 16 141 67 160 116 6 15 10 149 10
315 0 191 4 297 11 313 11 25 47 47 74 47 8 0 15 5 15 10 0 6 -63 10 -170 10
-93 0 -170 -4 -170 -9z"/>
<path d="M1610 1920 c0 -5 9 -10 21 -10 11 0 34 -13 50 -30 l30 -29 -3 -331
c-3 -318 -4 -332 -23 -346 -11 -9 -32 -18 -48 -21 -73 -15 -22 -23 142 -23
114 0 181 4 181 10 0 6 -12 10 -26 10 -29 0 -64 16 -81 39 -15 19 -18 311 -4
311 12 0 144 -142 246 -264 44 -52 89 -98 100 -101 28 -8 263 -2 245 7 -8 3
-32 9 -52 13 -20 3 -54 20 -75 37 -45 38 -347 375 -351 392 -1 7 51 65 118
130 119 115 226 196 261 196 10 0 21 5 24 10 4 6 -47 10 -144 10 -83 0 -151
-3 -151 -7 0 -5 15 -15 33 -23 37 -17 45 -46 24 -87 -19 -35 -170 -197 -238
-254 l-50 -42 3 172 3 173 28 24 c15 13 39 24 53 24 13 0 24 5 24 10 0 6 -63
10 -170 10 -107 0 -170 -4 -170 -10z"/>
</g>
</svg>
