<svg xmlns="http://www.w3.org/2000/svg" id="svg-logo" width="129.1" height="122" viewBox="26.4 -0.9 129.1 122" aria-labelledby="title desc" role="img">
	<title id="title">JK</title>
	<desc id="desc">Logo JK</desc>
	<circle class="svg-bg" fill="#F1F2F2" cx="94.5" cy="60" r="60"/>
	<g>
		<path class="svg-dash-left" fill="#FED137" d="M112.6 72.2c2.2-.1 3.3 1.7 4.1 3.4-.4.1-1 .6-.4.9.4.1.9-.1 1-.5.2.4 1 .3.9.9.5-.9 1.3-1.5 2.2-1.7.2-.1 1.3-.3 1.4-.1.1.3.2.5.3.8.9-.7 1.6-.4 2.4.2 1 .6 1.8.4 2.8.7.6.2.8.7 1.1 1.2.4.8 1.2 1 2 1-.7.2-1.9.4-1.2 1.4.6.6 1.6-.3 2.3.3-.2.8-1.5.5-2.1.7-.4.1-.5.4-.3.8.3.8.9 1.2 1.2 2 .1.3.2.6.4.9.4.1.7.2 1 .4.6.3 1.1.8 1.6 1.2 1.1 1 2.3 1.9 3.8 1.7-.7 0-.9.3-.9 1s-.1 1.1.6 1.5c.6.4 1.3.4 2 .7.5.2.2.3.4.8.1.4.1.6-.2.9-1.3-.8-2.5-1.7-3.8-2.4-.3-.1-.6-.3-.9-.4-.4-.2-.5.1-.8.3-.4.3-1 .6-.9 1.2.3 1.4.8 2.8 1.2 4.1.3 1.1.7 2.5 1.6 3.3-3.1-2.8-6.7-4.8-10-7.4-.7.6-.4 1.1.2 1.5.2.2.5.3.7.5.3.3.1.7-.3.5-.6-.2-1.1 0-1.5.4-.2.2-.8.8-1.1.6l-2.1-1.5c-.5-.4-1.1-1.1-1.6-.5-.8.9-1.5-.2-1.9-.9-.4-.8-.8-1.7-1.8-1.6-.6 0-.8-1.2-.9-1.7-.1-.7-.3-1.4-.9-1.8-1.2.4.7 1 .5 1.9-.6 0-.8-1.2-1.6-.8-.1 1.2 1.5 2.5.2 3.5-.4-1-1.3.1-1.9-.6-.8.4-.1 1.1.3 1.3-.8.3-.9-1-1.6-1-.4.5.9 1.3-.3 1.2-.2-.4-.8-1-1.2-1-.5.5.4.8.2 1.3-1.9-2.5-5.4-3.8-5.5-7.3 0-.9.2-1.9.7-2.6.4-.6 1.3-1 2-1.3.6-.3 1.4-.5 1.9.1 1-.2 2 .4 2.9.9-.1-.6-.2-1.5.5-1.9 1.4 1.1.4 3.2 1.9 4.4.1-.7.3-1.3.4-1.9.1-.7-.5-1.1-.1-1.8.5-.7 1.7-1.3 1.1-2.4 1.1.4.7-.9.7-1.5-1.4.3-3-.4-3.8-1.6-.9-1.8-.8-3.9 1.1-4.2 1.3-.1-1 .2 0 0z"/>
	</g>
	<g>
		<path class="svg-dash-right" fill="#FED137" d="M69.5 86.2c-1.7.7-3-.4-4.1-1.5.3-.2.6-.7 0-.8-.4 0-.6.3-.7.7-.3-.2-.8.1-.9-.4-.1.8-.6 1.5-1.2 1.9-.1.1-.9.6-1 .4-.1-.2-.3-.4-.4-.5-.6.9-1.3.7-2.2.5-.9-.2-1.6.4-2.4.3-.5-.1-.7-.5-1-.8-.5-.5-1.2-.3-1.7-.1.5-.3 1.3-.8.5-1.4-.6-.3-1.1.7-1.9.4 0-.6 1-.8 1.4-1.1.9-.6-.8-1.3-1.1-1.6-.2-.2-.3-.4-.5-.6-.3-.4-.4-.3-.8-.3-.6 0-1.1-.2-1.7-.5-1.2-.5-2.4-1-3.7-.4.8-.2.6-1.6-.1-1.8-.7-.1-1.4-.2-2.1-.2-2.4-.1-4.8-.1-7.1-.1H26.6c-.3 0-.4-1-.3-1.2 2.1.4 4.5.3 6.7.4 3.5.2 6.9.3 10.4.4 1.2 0 2.4.1 3.6.1h.9c.2 0 .5-.6.6-.8.3-.4.3-.8-.1-1.1-.6-.5-1.6-.7-2.4-1-1.5-.4-2.9-.7-4.4-1-2.9-.6-5.9-1.1-8.9-1.7-1.7-.3-3.7-.4-5.2-1.1 3.1 1.3 23.5 1.9 26.7 3 .4-.6.1-.9-.5-1.1-.3-.1-1.6-.7-.6-.7.4 0 .8-.3 1-.6.1-.2.5-.9.7-.9.7.2 1.3.4 2 .6.5.1 1.2.6 1.4 0 .4-1 1.3-.1 1.8.3.2.2.5.5.8.6.4.2.9-.2 1.3.1.8.6.9 1.8 2 2.1.8-.7-.8-.6-.9-1.3.5-.2 1 .7 1.5.2-.2-1-1.9-1.5-1.1-2.6.5.7 1-.4 1.6 0 .5-.5-.2-.8-.6-.9.6-.4 1 .6 1.5.4.2-.5-1-.8-.1-1 .3.3.9.6 1.2.5.2-.5-.5-.5-.5-.9 2.2 1.5 5.6 1.5 6.3 4.6.2.7.2 1.6-.1 2.3-.5.3-.8.8-1.2 1.2-.6.5-1 .2-1.6.4-.7.3-1.5.1-2.2 0 .2.5.6 1.1.2 1.6-1.4-.5-1.2-2.4-2.6-2.9.1.5.1 1 .2 1.5.1.4.6.8.6 1.2-.1.8-1.1 1.7-.2 2.4-1 0-.3.9-.1 1.4 1-.6 2.4-.5 3.3.2 1.2.7 1.6 2.4.2 3.2-.9.4.8-.4 0 0z"/>
	</g>
	<g>
		<path class="svg-txt" d="M80.5 41.6c-1 .3-1.8 1-2.3 1.9-.3.6-.5 1.5-.5 2.5 0 1.1-.1 2-.1 3v26.6c0 1.3-.3 2.5-1 3.4-.6.9-1.5 1.8-2.5 2.6-1.3 1-2.6 1.7-4 2.2-1.4.4-2.6.7-3.8.7-.6 0-1.3-.1-1.9-.2-.6-.2-1.2-.4-1.7-.7-.5-.3-.9-.7-1.2-1.3-.3-.5-.5-1.2-.5-2 0-1 .4-1.7 1.1-2.3.7-.6 1.5-.9 2.5-.9.8 0 1.5.3 2.1.9.6.6.9 1.3.9 2.1 0 .9-.3 1.6-.8 2-.6.4-1.3.7-2.1.8v.1c.2.3.5.5.8.6s.7.2 1 .2c1 0 1.8-.3 2.4-1 .6-.6 1.1-1.4 1.4-2.3.2-.9.4-1.9.5-3 .1-1.1.2-2.2.2-3.4v-2.3-3.1-3.5V50v-2.2c0-.7 0-1.4-.1-2.1s-.1-1.2-.2-1.8c-.1-.5-.3-.9-.5-1.2-.6-.7-1.3-1.1-2.3-1.4-1-.2-2-.4-3-.5v-.6h18.5v.6c-.9.2-1.9.4-2.9.8zM119.2 83.5c-.2-.1-.3-.2-.5-.3-.2-.1-.4-.3-.7-.6-2.6-3-5-5.8-7.3-8.4-2.3-2.7-4.7-5.3-7.2-8.1-1-1.2-1.8-1.9-2.1-2.2-.4-.3-.7-.4-1-.4-.3 0-.5.1-.6.2-.1.1-.2.4-.3.7v5.9c0 1.8 0 3.4.1 4.7 0 1.2.1 2.2.2 3.2s.4 1.8.8 2.3c.3.4.7.7 1.1 1 .5.3 1 .5 1.6.7.6.2 1.1.3 1.7.4.5.1 1 .2 1.4.2v.6H87.1v-.6c1-.2 2-.4 2.9-.7.9-.3 1.6-.8 2.1-1.3.2-.2.4-.6.5-1.1.1-.5.2-1 .3-1.7.1-.6.1-1.3.1-2v-2-2.3-3.1-3.5V50c0-1.5-.1-2.9-.2-4.2s-.4-2.2-.8-2.8c-.6-.7-1.2-1.2-2-1.5-.8-.3-1.7-.5-2.8-.7v-.6h18.6v.6c-.8.1-1.5.2-2.2.3s-1.4.4-1.9.9c-.6.5-1 1.2-1.4 2.1-.4.9-.6 2.2-.6 3.9 0 .9-.1 1.8-.1 2.6v12.1c.7-.4 1.7-1.2 2.9-2.2 1.2-1.1 2.5-2.2 3.8-3.6 1.3-1.3 2.7-2.7 4-4.1 1.3-1.4 2.5-2.6 3.4-3.7.7-.8 1.3-1.6 1.8-2.5.5-.8.8-1.6.8-2.3 0-1.2-.4-2-1.2-2.5-.8-.5-1.7-.9-2.8-1v-.6h16.1v.6c-2 .2-4.1 1.1-6.2 2.6s-4.2 3.3-6.4 5.3c-.8.8-1.7 1.6-2.6 2.5l-2.6 2.6-2.5 2.5c-.8.8-1.6 1.6-2.2 2.3.3.4 1.1 1.3 2.2 2.6 1.2 1.3 2.5 2.9 4.1 4.7 1.6 1.8 3.3 3.7 5.1 5.8s3.6 4 5.2 5.9c.4.5.9 1 1.4 1.4.5.5 1 .9 1.5 1.3s.9.7 1.3 1c.4.3.6.4.7.5.5.2 1.2.4 2.1.6.9.2 1.9.3 3 .4v.6h-13.3z"/>
	</g>
</svg>
